<?xml version="1.0" encoding="UTF-8" standalone="no"?>
<svg
   xmlns:dc="http://purl.org/dc/elements/1.1/"
   xmlns:cc="http://creativecommons.org/ns#"
   xmlns:rdf="http://www.w3.org/1999/02/22-rdf-syntax-ns#"
   xmlns:svg="http://www.w3.org/2000/svg"
   xmlns="http://www.w3.org/2000/svg"
   width="225.77777mm"
   height="225.77777mm"
   viewBox="0 0 225.77777 225.77777"
   version="1.1"
   id="svg8">
  <defs
     id="defs2" />
  <metadata
     id="metadata5">
    <rdf:RDF>
      <cc:Work
         rdf:about="">
        <dc:format>image/svg+xml</dc:format>
        <dc:type
           rdf:resource="http://purl.org/dc/dcmitype/StillImage" />
        <dc:title></dc:title>
      </cc:Work>
    </rdf:RDF>
  </metadata>
  <path
     style="fill:#cca39a;stroke-width:0.35277778"
     d="m 43.109443,201.01276 c -0.661282,-0.66128 -0.607649,-53.66508 0.05486,-54.21491 0.351416,-0.29165 18.706076,-0.37325 69.232637,-0.30778 l 68.75445,0.0891 0.0904,26.94868 c 0.0658,19.6155 -0.018,27.07924 -0.30778,27.42847 -0.55336,0.66676 -137.158314,0.72271 -137.824574,0.0565 z m 18.895394,-23.88718 c 0.06199,-9.33364 0.217968,-14.05494 0.474547,-14.3641 0.259976,-0.31325 1.584257,-0.49244 4.140993,-0.56031 l 3.758787,-0.0998 v -2.99861 -2.99861 H 58.913887 47.448609 v 2.99861 2.99861 l 4.056945,0.17639 4.056944,0.17639 0.08861,13.93472 c 0.04874,7.66409 0.165294,14.13962 0.259024,14.39005 0.124749,0.33332 0.951727,0.42785 3.086389,0.35278 l 2.91598,-0.10256 z m 21.779882,-3.55893 v -17.46249 h -2.998611 -2.998611 l -0.09185,17.10972 c -0.05052,9.41034 -0.01333,17.31462 0.08263,17.56505 0.127639,0.33308 0.95733,0.42779 3.09046,0.35278 l 2.91598,-0.10256 z m 26.329001,16.31524 c 1.34162,-0.61014 3.11031,-1.8066 4.14515,-2.80405 l 1.80502,-1.73981 v -5.88569 -5.88569 h -4.77862 -4.77862 l 0.10431,2.38125 0.10431,2.38125 1.76389,0.17639 1.76389,0.17639 0.10872,1.50422 c 0.36055,4.98863 -7.16556,6.40425 -10.774044,2.02654 -0.599726,-0.72757 -1.263184,-2.00899 -1.47435,-2.84761 -0.496729,-1.97268 -0.493056,-9.79426 0.0055,-11.61926 0.801688,-2.93491 3.481744,-5.09978 6.313394,-5.09978 1.65201,0 4.03878,1.12352 4.77557,2.248 0.32848,0.50133 0.74644,0.9115 0.92879,0.9115 0.47219,0 4.52619,-2.79368 4.52619,-3.11907 0,-0.14882 -0.46146,-0.99823 -1.02548,-1.88759 -3.83925,-6.05386 -14.097507,-6.35313 -18.852732,-0.55 -2.476744,3.02253 -3.383337,6.59115 -3.383337,13.31777 0,7.15754 1.116373,11.11389 3.96487,14.05122 2.646408,2.72893 5.132449,3.64142 9.418899,3.45716 2.40398,-0.10335 3.46266,-0.33995 5.33872,-1.19314 z m 36.56791,-1.76315 0.10246,-2.91042 h -6.85023 c -5.43192,0 -6.93487,-0.10197 -7.25896,-0.49248 -0.26749,-0.3223 -0.37384,-1.75464 -0.30778,-4.14514 l 0.10094,-3.65266 5.11528,-0.17639 5.11527,-0.17638 v -2.99862 -2.99861 l -5.11527,-0.17639 -5.11528,-0.17638 v -3.88056 -3.88055 l 7.05555,-0.17639 7.05556,-0.17639 v -2.99861 -2.99861 h -10.23056 -10.23055 l -0.0919,17.10972 c -0.0505,9.41034 -0.0149,17.3106 0.0792,17.55612 0.13364,0.34874 2.39171,0.42591 10.32241,0.35277 l 10.15135,-0.0936 z m 14.18504,-2.91042 0.17639,-5.82083 h 0.88194 c 1.02873,0 1.34606,0.56309 4.07558,7.23194 l 1.80487,4.40972 3.40977,0.10097 c 1.87538,0.0555 3.40978,-2.1e-4 3.40978,-0.12387 0,-0.12366 -1.42875,-3.05884 -3.175,-6.52262 -1.74625,-3.46378 -3.175,-6.6195 -3.175,-7.01271 0,-0.46974 0.4537,-0.94875 1.32292,-1.39674 1.81066,-0.93318 3.42274,-2.69538 4.39165,-4.80058 0.66625,-1.4476 0.80692,-2.33322 0.78451,-4.93889 -0.0322,-3.75122 -0.9313,-6.2539 -2.85259,-7.94082 -2.33897,-2.05364 -3.17727,-2.23388 -10.52566,-2.26309 l -6.70277,-0.0266 -0.0918,17.10972 c -0.0505,9.41035 -0.0133,17.31462 0.0826,17.56506 0.12764,0.33308 0.95733,0.42779 3.09046,0.35277 l 2.91598,-0.10256 z M 44.963819,144.54971 c -0.09328,-0.24307 -0.12798,-6.55339 -0.07712,-14.02292 l 0.09247,-13.58097 6.525546,-0.17639 6.525549,-0.17638 1.280576,-4.23334 c 2.586016,-8.54885 9.670329,-32.232246 19.522093,-65.263878 5.555449,-18.626666 10.529781,-35.136666 11.05408,-36.688888 l 0.953262,-2.822222 h 21.166675 21.16666 l 0.58556,1.763889 c 0.32205,0.970139 2.58937,8.510763 5.03847,16.756944 2.44911,8.24618 4.59581,15.38993 4.77047,15.874999 0.17465,0.48507 1.84691,6.041319 3.71614,12.34722 9.87225,33.30449 18.09699,60.695006 18.50903,61.639906 0.33402,0.76599 0.5048,0.78817 6.79204,0.88195 l 6.4494,0.0962 v 13.93473 13.93472 h -27.51666 -27.51667 v -13.93472 -13.93473 l 6.17361,-0.17639 c 5.22708,-0.14934 6.16022,-0.25752 6.08625,-0.70555 -0.0481,-0.29104 -0.85054,-3.06917 -1.78331,-6.17361 l -1.69595,-5.64445 H 111.99523 91.208462 l -1.673324,5.46806 c -0.92033,3.00743 -1.717548,5.78555 -1.771593,6.17361 -0.09426,0.67675 0.153761,0.71276 6.075341,0.88194 l 6.173614,0.17639 0.0983,13.22917 c 0.0541,7.27604 0.0113,13.58635 -0.0949,14.02292 l -0.193177,0.79375 h -27.34463 c -21.582507,0 -27.380363,-0.0931 -27.514218,-0.44195 z M 123.94796,75.580894 c 0.0905,-0.14648 -0.6316,-2.88492 -1.60472,-6.08542 -0.97312,-3.2005 -3.63724,-12.08971 -5.92026,-19.753809 -2.28302,-7.664097 -4.28997,-13.907537 -4.45988,-13.874312 -0.16991,0.03323 -0.51607,0.747599 -0.76925,1.5875 -6.59147,21.866851 -11.273989,37.889701 -11.13746,38.110611 0.22146,0.35832 23.67029,0.37346 23.89157,0.0154 z"
     id="path86" />
  <path
     style="fill:#a3ab9f;stroke-width:0.35277778"
     d="m 43.303471,201.05506 c -0.579364,-0.33745 -0.617361,-2.00427 -0.617361,-27.0826 0,-20.3142 0.101526,-26.82455 0.423333,-27.14636 0.615989,-0.61599 137.179017,-0.61599 137.795007,0 0.32181,0.32181 0.42333,6.83329 0.42333,27.15148 0,26.06427 -0.0169,26.73721 -0.68237,27.09333 -0.94337,0.50488 -136.474752,0.48924 -137.341939,-0.0158 z m 18.701366,-23.92948 c 0.06199,-9.33364 0.217968,-14.05494 0.474547,-14.3641 0.259976,-0.31325 1.584257,-0.49244 4.140993,-0.56031 l 3.758787,-0.0998 v -2.99861 -2.99861 H 58.913887 47.448609 v 2.99861 2.99861 l 3.351389,0.0878 c 1.843264,0.0483 3.708577,0.17038 4.145139,0.27131 l 0.79375,0.18349 v 14.0456 c 0,7.72508 0.111732,14.15732 0.248292,14.29388 0.136557,0.13656 1.525619,0.20271 3.086805,0.14699 l 2.838514,-0.1013 z m 21.779882,-3.55893 v -17.46249 h -2.998611 -2.998611 l -0.09185,17.10972 c -0.05052,9.41034 -0.01333,17.31462 0.08263,17.56505 0.127639,0.33308 0.95733,0.42779 3.09046,0.35278 l 2.91598,-0.10256 z m 24.542221,17.07859 c 2.33662,-0.68327 4.62382,-2.09851 6.50223,-4.02337 l 1.41111,-1.44601 v -5.71641 -5.71641 l -4.86704,-0.0983 -4.86705,-0.0983 0.10454,2.39131 0.10454,2.39131 1.40664,0.11448 c 1.83971,0.14973 2.29753,0.57867 2.29753,2.15257 0,1.00318 -0.26091,1.55037 -1.14653,2.40461 -3.3118,3.19445 -8.26919,2.16613 -10.616498,-2.20221 -0.688005,-1.28037 -0.758363,-1.95041 -0.759418,-7.23195 -0.0011,-5.27804 0.06935,-5.95241 0.755047,-7.23194 0.928155,-1.73197 1.706839,-2.45806 3.390509,-3.16154 2.47243,-1.03305 4.89916,-0.48921 6.79901,1.52369 0.57553,0.60977 1.19299,1.10868 1.37213,1.10868 0.74579,0 4.43315,-2.68968 4.436,-3.23577 0.005,-0.94091 -2.16662,-3.54458 -3.9669,-4.75628 -4.47956,-3.01503 -11.908134,-2.05533 -15.583884,2.01329 -2.952179,3.2677 -3.967861,7.7126 -3.6233,15.85654 0.261285,6.1756 1.174031,9.23315 3.566876,11.94846 2.694549,3.05767 8.573028,4.39116 13.284458,3.01346 z m 38.35469,-2.5265 0.10246,-2.91042 h -6.56385 c -3.84999,0 -6.84597,-0.15099 -7.24621,-0.36519 -0.60367,-0.32308 -0.68236,-0.76558 -0.68236,-3.83736 0,-2.44016 0.13798,-3.58668 0.46424,-3.85745 0.27012,-0.22418 2.44589,-0.42663 5.20347,-0.48417 l 4.73923,-0.0989 v -2.99862 -2.99861 l -5.11527,-0.17639 -5.11528,-0.17638 v -3.88056 -3.88055 l 7.05555,-0.17639 7.05556,-0.17639 v -2.99861 -2.99861 h -10.23056 -10.23055 l -0.0919,17.10972 c -0.0505,9.41034 -0.0149,17.3106 0.0792,17.55612 0.13364,0.34874 2.39171,0.42591 10.32241,0.35277 l 10.15135,-0.0936 z m 14.10562,-2.60992 c 0.0788,-4.486 0.20002,-5.60586 0.64693,-5.97677 0.37627,-0.31228 0.72194,-0.34795 1.09451,-0.11294 0.2995,0.18892 1.60238,2.87847 2.8953,5.97677 l 2.35075,5.63327 3.42513,0.10097 c 2.2145,0.0653 3.42513,-0.0296 3.42513,-0.26829 0,-0.2031 -1.42875,-3.22343 -3.175,-6.71184 -1.74625,-3.48842 -3.175,-6.58156 -3.175,-6.87365 0,-0.29209 0.73129,-0.87482 1.62509,-1.29495 3.30045,-1.5514 5.3418,-5.80669 4.95886,-10.33695 -0.39279,-4.64667 -1.74911,-7.07931 -4.7758,-8.56569 -1.95572,-0.96044 -2.08186,-0.97459 -8.68732,-0.97459 h -6.70277 l -0.0918,17.10972 c -0.0505,9.41034 -0.0133,17.31462 0.0826,17.56505 0.12764,0.33308 0.95733,0.42779 3.09046,0.35278 l 2.91598,-0.10256 z M 45.316491,144.19665 c -0.09333,-0.24322 -0.12804,-6.39479 -0.07712,-13.67014 l 0.09258,-13.22791 6.500103,-0.17639 6.500103,-0.17639 4.52627,-14.99305 c 2.489446,-8.246176 5.383148,-17.929926 6.430454,-21.519446 1.047302,-3.58951 5.31732,-17.87701 9.488928,-31.749992 4.171608,-13.872986 8.568182,-28.55736 9.770159,-32.631944 1.201981,-4.074583 2.347972,-7.60677 2.546646,-7.849305 0.527163,-0.64354 41.310016,-0.64354 41.797466,0 0.18371,0.242535 0.75373,1.869722 1.2667,3.615972 0.51298,1.74625 1.74996,5.87375 2.74884,9.172222 0.99889,3.298472 2.41577,8.060972 3.14864,10.583333 0.73287,2.522361 3.66372,12.364861 6.51301,21.872224 2.84929,9.50736 8.19162,27.33589 11.87184,39.61895 3.68022,12.283066 6.83747,22.717276 7.01611,23.187136 l 0.3248,0.85428 6.44997,0.0962 6.44997,0.0962 v 13.58195 13.58194 h -27.1639 -27.16389 V 130.88055 117.2986 l 5.98847,-0.0971 c 3.29366,-0.0534 6.11713,-0.22574 6.27437,-0.38299 0.15725,-0.15724 -0.12203,-1.62168 -0.6206,-3.2543 -0.49858,-1.63262 -1.38351,-4.51746 -1.96651,-6.41076 l -1.06001,-3.44235 -21.03489,0.091 -21.034912,0.091 -1.879656,6.17361 c -1.033812,3.39548 -1.807764,6.36827 -1.719894,6.60619 0.115778,0.31348 1.839083,0.45917 6.259473,0.52916 l 6.099708,0.0966 0.09832,12.87639 c 0.05407,7.08201 0.01136,13.23358 -0.09492,13.67014 l -0.193234,0.79375 H 72.478037 c -21.308832,0 -27.027578,-0.0931 -27.161546,-0.44223 z M 124.34998,75.853994 c 0.17534,-0.2837 -4.50929,-16.4112 -9.327,-32.109551 -0.56568,-1.843264 -1.37459,-4.510511 -1.79758,-5.927213 -0.97827,-3.276551 -1.61684,-3.293807 -2.54721,-0.06883 -0.89901,3.116304 -6.83654,23.013924 -9.25614,31.018794 -1.08092,3.57605 -1.884929,6.71136 -1.786694,6.96736 0.143115,0.37295 2.595234,0.46544 12.339704,0.46544 7.5681,0 12.24184,-0.13068 12.37492,-0.346 z"
     id="path84" />
  <path
     style="fill:#ae5d58;stroke-width:0.35277778"
     d="m 43.461783,200.65955 c -0.660812,-0.66081 -0.60676,-52.95946 0.0553,-53.50893 0.351409,-0.29164 18.614142,-0.37325 68.879867,-0.30778 l 68.40166,0.0891 0.0915,26.63472 c 0.0849,24.69416 0.048,26.66675 -0.50652,27.07432 -0.85715,0.63005 -136.292006,0.64842 -136.921849,0.0186 z m 18.895832,-23.18119 c 0.06199,-9.33365 0.217967,-14.05494 0.474546,-14.3641 0.259976,-0.31325 1.584258,-0.49244 4.140994,-0.56031 l 3.758787,-0.0998 v -3.35139 -3.35139 H 58.913887 47.095832 v 3.35139 3.35139 l 4.056944,0.17638 4.056944,0.17639 0.08861,13.93472 c 0.04874,7.6641 0.165117,14.13916 0.258624,14.38902 0.125766,0.33605 1.02083,0.42787 3.439167,0.35277 l 3.269157,-0.10151 z m 21.779882,-3.91171 V 155.75138 H 80.786108 77.43472 l -0.09181,17.4625 c -0.0505,9.60437 -0.01351,17.66693 0.08223,17.91679 0.128669,0.33584 1.0264,0.42782 3.443203,0.35277 l 3.269156,-0.10151 z m 24.791453,17.28277 c 2.60114,-0.91301 5.56733,-2.96172 6.84828,-4.73003 l 1.00908,-1.39298 -0.0966,-5.66807 -0.0966,-5.66807 -5.21848,-0.0977 -5.21849,-0.0977 0.1032,2.74355 0.10321,2.74354 1.76389,0.17639 c 1.73364,0.17337 1.76571,0.19824 1.87046,1.4504 0.21248,2.54003 -2.61112,4.50273 -5.8409,4.06004 -2.13734,-0.29296 -3.79123,-1.3806 -4.852131,-3.19089 -0.844455,-1.44095 -0.878822,-1.73705 -0.878822,-7.57153 0,-6.56759 0.13239,-7.15937 1.996973,-8.92643 0.5509,-0.52209 1.73821,-1.14564 2.63846,-1.38569 1.40583,-0.37485 1.85983,-0.35128 3.21702,0.16704 0.8691,0.33191 2.08513,1.15838 2.7023,1.8366 0.66916,0.73536 1.29301,1.131 1.54548,0.98013 2.39987,-1.4341 4.48033,-3.11337 4.48033,-3.61634 0,-0.77836 -2.01524,-3.62923 -3.25456,-4.60407 -2.01499,-1.58499 -4.17311,-2.25353 -7.32878,-2.2703 -1.64924,-0.009 -3.64301,0.17598 -4.430597,0.41053 -3.481201,1.03672 -6.600391,4.20303 -7.979163,8.09969 -0.910781,2.57402 -1.28469,10.82697 -0.690238,15.23483 0.816247,6.05243 3.774161,9.97775 8.690278,11.53252 2.24542,0.71013 6.57774,0.60546 8.91645,-0.21543 z m 38.10414,-2.50035 c 0.0743,-2.22848 -0.0263,-3.13861 -0.37927,-3.43158 -0.31004,-0.2573 -2.84818,-0.43282 -7.1567,-0.49491 l -6.67628,-0.0962 v -3.52778 -3.52778 l 5.11527,-0.17639 5.11528,-0.17639 v -3.35139 -3.35138 l -5.11528,-0.17639 -5.11527,-0.17639 v -3.52778 -3.52778 l 7.05555,-0.17639 7.05556,-0.17638 v -3.35139 -3.35139 h -10.58334 -10.58333 l -0.0918,17.4625 c -0.0505,9.60437 -0.0149,17.6633 0.0791,17.90873 0.13367,0.34891 2.462,0.42585 10.67515,0.35278 l 10.50419,-0.0935 z m 14.18636,-2.78797 c 0.14728,-4.8605 0.26369,-5.82083 0.70555,-5.82083 0.61579,0 1.2384,1.20361 3.74094,7.23194 l 1.83061,4.40972 3.74062,0.10013 c 3.18077,0.0851 3.74061,0.0186 3.74061,-0.44468 0,-0.29965 -1.42875,-3.39898 -3.175,-6.88739 -1.74625,-3.48842 -3.175,-6.49977 -3.175,-6.6919 0,-0.19212 0.61034,-0.66069 1.35632,-1.04126 1.58391,-0.80805 3.25465,-2.61106 4.36641,-4.71207 0.66374,-1.25436 0.78823,-2.0464 0.7886,-5.01727 2.3e-4,-1.95929 -0.20046,-4.10358 -0.4514,-4.82284 -0.75643,-2.16816 -2.40153,-4.09304 -4.38093,-5.12599 -1.84057,-0.96051 -1.91174,-0.96831 -8.91095,-0.97776 l -7.05555,-0.01 -0.0918,17.4625 c -0.0505,9.60438 -0.0135,17.66693 0.0822,17.91679 0.12867,0.33585 1.0264,0.42783 3.4432,0.35278 l 3.26916,-0.10151 z M 45.316491,144.19665 c -0.09333,-0.24322 -0.12804,-6.39479 -0.07712,-13.67014 l 0.09258,-13.22791 6.500103,-0.17639 6.500103,-0.17639 4.52627,-14.99305 c 2.489446,-8.246176 5.383148,-17.929926 6.430454,-21.519446 1.047302,-3.58951 5.31732,-17.87701 9.488928,-31.749992 4.171608,-13.872986 8.568182,-28.55736 9.770159,-32.631944 1.201981,-4.074583 2.347972,-7.60677 2.546646,-7.849305 0.527163,-0.64354 41.310016,-0.64354 41.797466,0 0.18371,0.242535 0.75373,1.869722 1.2667,3.615972 0.51298,1.74625 1.74996,5.87375 2.74884,9.172222 0.99889,3.298472 2.41577,8.060972 3.14864,10.583333 0.73287,2.522361 3.66372,12.364861 6.51301,21.872224 2.84929,9.50736 8.19162,27.33589 11.87184,39.61895 3.68022,12.283066 6.83747,22.717276 7.01611,23.187136 l 0.3248,0.85428 6.44997,0.0962 6.44997,0.0962 v 13.58195 13.58194 h -27.1639 -27.16389 V 130.88055 117.2986 l 5.98847,-0.0971 c 3.29366,-0.0534 6.11713,-0.22574 6.27437,-0.38299 0.15725,-0.15724 -0.12203,-1.62168 -0.6206,-3.2543 -0.49858,-1.63262 -1.38351,-4.51746 -1.96651,-6.41076 l -1.06001,-3.44235 -21.03489,0.091 -21.034912,0.091 -1.879656,6.17361 c -1.033812,3.39548 -1.807764,6.36827 -1.719894,6.60619 0.115778,0.31348 1.839083,0.45917 6.259473,0.52916 l 6.099708,0.0966 0.09832,12.87639 c 0.05407,7.08201 0.01136,13.23358 -0.09492,13.67014 l -0.193234,0.79375 H 72.478037 c -21.308832,0 -27.027578,-0.0931 -27.161546,-0.44223 z M 124.34998,75.853994 c 0.17534,-0.2837 -4.50929,-16.4112 -9.327,-32.109551 -0.56568,-1.843264 -1.37459,-4.510511 -1.79758,-5.927213 -0.97827,-3.276551 -1.61684,-3.293807 -2.54721,-0.06883 -0.89901,3.116304 -6.83654,23.013924 -9.25614,31.018794 -1.08092,3.57605 -1.884929,6.71136 -1.786694,6.96736 0.143115,0.37295 2.595234,0.46544 12.339704,0.46544 7.5681,0 12.24184,-0.13068 12.37492,-0.346 z"
     id="path82" />
  <path
     style="fill:#5a695b;stroke-width:0.35277778"
     d="m 43.461783,200.65955 c -0.660812,-0.66081 -0.60676,-52.95946 0.0553,-53.50893 0.351409,-0.29164 18.614142,-0.37325 68.879867,-0.30778 l 68.40166,0.0891 0.0915,26.63472 c 0.0849,24.69416 0.048,26.66675 -0.50652,27.07432 -0.85715,0.63005 -136.292006,0.64842 -136.921849,0.0186 z m 18.895832,-23.18119 c 0.06199,-9.33365 0.217967,-14.05494 0.474546,-14.3641 0.259976,-0.31325 1.584258,-0.49244 4.140994,-0.56031 l 3.758787,-0.0998 v -3.35139 -3.35139 H 58.913887 47.095832 v 3.35139 3.35139 l 4.056944,0.17638 4.056944,0.17639 0.08861,13.93472 c 0.04874,7.6641 0.165117,14.13916 0.258624,14.38902 0.125766,0.33605 1.02083,0.42787 3.439167,0.35277 l 3.269157,-0.10151 z m 21.779882,-3.91171 V 155.75138 H 80.786108 77.43472 l -0.09181,17.4625 c -0.0505,9.60437 -0.01351,17.66693 0.08223,17.91679 0.128669,0.33584 1.0264,0.42782 3.443203,0.35277 l 3.269156,-0.10151 z m 24.791453,17.28277 c 2.60114,-0.91301 5.56733,-2.96172 6.84828,-4.73003 l 1.00908,-1.39298 -0.0966,-5.66807 -0.0966,-5.66807 -5.21848,-0.0977 -5.21849,-0.0977 0.1032,2.74355 0.10321,2.74354 1.76389,0.17639 c 1.73364,0.17337 1.76571,0.19824 1.87046,1.4504 0.21248,2.54003 -2.61112,4.50273 -5.8409,4.06004 -2.13734,-0.29296 -3.79123,-1.3806 -4.852131,-3.19089 -0.844455,-1.44095 -0.878822,-1.73705 -0.878822,-7.57153 0,-6.56759 0.13239,-7.15937 1.996973,-8.92643 0.5509,-0.52209 1.73821,-1.14564 2.63846,-1.38569 1.40583,-0.37485 1.85983,-0.35128 3.21702,0.16704 0.8691,0.33191 2.08513,1.15838 2.7023,1.8366 0.66916,0.73536 1.29301,1.131 1.54548,0.98013 2.39987,-1.4341 4.48033,-3.11337 4.48033,-3.61634 0,-0.77836 -2.01524,-3.62923 -3.25456,-4.60407 -2.01499,-1.58499 -4.17311,-2.25353 -7.32878,-2.2703 -1.64924,-0.009 -3.64301,0.17598 -4.430597,0.41053 -3.481201,1.03672 -6.600391,4.20303 -7.979163,8.09969 -0.910781,2.57402 -1.28469,10.82697 -0.690238,15.23483 0.816247,6.05243 3.774161,9.97775 8.690278,11.53252 2.24542,0.71013 6.57774,0.60546 8.91645,-0.21543 z m 38.10414,-2.50035 c 0.0743,-2.22848 -0.0263,-3.13861 -0.37927,-3.43158 -0.31004,-0.2573 -2.84818,-0.43282 -7.1567,-0.49491 l -6.67628,-0.0962 v -3.52778 -3.52778 l 5.11527,-0.17639 5.11528,-0.17639 v -3.35139 -3.35138 l -5.11528,-0.17639 -5.11527,-0.17639 v -3.52778 -3.52778 l 7.05555,-0.17639 7.05556,-0.17638 v -3.35139 -3.35139 h -10.58334 -10.58333 l -0.0918,17.4625 c -0.0505,9.60437 -0.0149,17.6633 0.0791,17.90873 0.13367,0.34891 2.462,0.42585 10.67515,0.35278 l 10.50419,-0.0935 z m 14.18636,-2.78797 c 0.14728,-4.8605 0.26369,-5.82083 0.70555,-5.82083 0.61579,0 1.2384,1.20361 3.74094,7.23194 l 1.83061,4.40972 3.74062,0.10013 c 3.18077,0.0851 3.74061,0.0186 3.74061,-0.44468 0,-0.29965 -1.42875,-3.39898 -3.175,-6.88739 -1.74625,-3.48842 -3.175,-6.49977 -3.175,-6.6919 0,-0.19212 0.61034,-0.66069 1.35632,-1.04126 1.58391,-0.80805 3.25465,-2.61106 4.36641,-4.71207 0.66374,-1.25436 0.78823,-2.0464 0.7886,-5.01727 2.3e-4,-1.95929 -0.20046,-4.10358 -0.4514,-4.82284 -0.75643,-2.16816 -2.40153,-4.09304 -4.38093,-5.12599 -1.84057,-0.96051 -1.91174,-0.96831 -8.91095,-0.97776 l -7.05555,-0.01 -0.0918,17.4625 c -0.0505,9.60438 -0.0135,17.66693 0.0822,17.91679 0.12867,0.33585 1.0264,0.42783 3.4432,0.35278 l 3.26916,-0.10151 z M 45.669156,143.84359 c -0.09339,-0.24339 -0.128101,-6.2362 -0.07712,-13.31736 l 0.09269,-12.87485 6.225243,-0.0962 c 4.66078,-0.072 6.323288,-0.21432 6.615391,-0.56629 0.355688,-0.42857 4.027262,-12.4774 15.331898,-50.313906 2.231877,-7.47006 4.772854,-15.96319 5.646621,-18.873607 0.873764,-2.910416 3.670773,-12.276666 6.215577,-20.813888 2.544802,-8.537222 4.869865,-16.276284 5.166805,-17.197916 l 0.539887,-1.675694 h 20.389562 c 15.89833,0 20.46314,0.09713 20.72358,0.440972 0.18371,0.242535 0.75373,1.869722 1.26671,3.615972 0.51297,1.74625 1.74692,5.87375 2.7421,9.172222 0.99517,3.298472 2.72798,9.092847 3.85067,12.876388 7.28238,24.542021 24.34394,81.433847 24.71151,82.400637 0.31785,0.83603 0.34108,0.83923 6.76892,0.9351 l 6.44997,0.0962 v 13.22917 13.22916 h -26.81111 -26.81111 v -13.22916 -13.22917 l 6.0997,-0.0966 c 4.8958,-0.0775 6.13788,-0.19604 6.29308,-0.60048 0.25079,-0.65354 -3.38454,-12.82207 -4.0206,-13.45813 -0.68206,-0.68207 -41.274169,-0.72457 -42.128445,-0.0441 -0.60966,0.48562 -4.268731,12.35233 -4.092441,13.27218 0.09512,0.49632 0.948203,0.59832 6.279388,0.75074 l 6.169314,0.17639 0.107816,10.75972 c 0.0593,5.91785 0.0061,11.91066 -0.118293,13.31736 l -0.22611,2.55764 H 72.454662 c -21.016616,0 -26.651419,-0.0931 -26.785506,-0.44251 z M 124.7725,75.979994 c 0.22,-0.57331 -11.35164,-39.782593 -11.98621,-40.614023 -0.48972,-0.641628 -1.54696,-0.539654 -1.82878,0.176389 -0.13364,0.339548 -1.48868,4.824236 -3.01121,9.965972 -1.52253,5.141736 -3.57036,11.967982 -4.55073,15.169442 -3.36709,10.99532 -4.378591,14.71742 -4.15669,15.29567 0.200391,0.52223 1.45894,0.57933 12.76807,0.57933 11.25095,0 12.56844,-0.0591 12.76555,-0.57278 z"
     id="path80" />
  <path
     style="fill:#890200;stroke-width:0.35277778;fill-opacity:1"
     d="m 43.552684,200.28628 c -0.0919,-0.24073 -0.126037,-12.26456 -0.07586,-26.71963 l 0.09123,-26.28194 h 68.438896 68.43888 l 0.0905,26.43612 c 0.0716,20.91602 -0.002,26.49461 -0.35278,26.71628 -0.24377,0.15409 -31.04784,0.28167 -68.45348,0.28351 -53.812963,0.002 -68.045136,-0.088 -68.177346,-0.43434 z m 19.241758,-22.83907 0.176389,-14.2875 4.056944,-0.17639 4.056945,-0.17639 v -3.70416 -3.70417 H 58.913887 46.743054 v 3.70417 3.70416 l 4.056944,0.17639 4.056945,0.17639 0.09234,13.90357 c 0.06482,9.75902 0.212143,14.04793 0.494238,14.38783 0.301153,0.36286 1.250756,0.4591 3.788216,0.38393 l 3.386317,-0.10033 z m 21.695833,-3.88056 V 155.3986 l -3.298726,-0.1019 c -2.129007,-0.0658 -3.473764,0.0434 -3.792361,0.30778 -0.684294,0.56791 -0.740777,35.21281 -0.05852,35.89507 0.299371,0.29937 1.482482,0.40392 3.792361,0.33514 l 3.357245,-0.1 z m 25.721465,17.16287 c 2.39303,-1.08623 5.62783,-3.71134 6.39036,-5.1859 0.60423,-1.16846 0.74873,-11.42307 0.17374,-12.32974 -0.27856,-0.43925 -1.1918,-0.50959 -5.37446,-0.41394 -2.77139,0.0634 -5.16507,0.23718 -5.31929,0.38624 -0.15423,0.14906 -0.2336,1.52595 -0.17639,3.05977 l 0.10402,2.78876 1.76389,0.17639 c 1.6942,0.16942 1.76829,0.2222 1.87541,1.33598 0.0886,0.92147 -0.11256,1.36891 -0.97969,2.17892 -1.28592,1.20123 -2.69323,1.57841 -4.74262,1.27109 -1.79252,-0.26881 -3.975403,-1.95467 -4.663595,-3.60175 -0.692217,-1.6567 -0.684138,-12.47886 0.0103,-13.81357 1.921965,-3.69395 6.535825,-4.19936 9.430185,-1.03298 l 1.31126,1.4345 2.66718,-1.7354 c 3.05884,-1.99024 3.191,-2.37315 1.65506,-4.79508 -1.18574,-1.86972 -2.72229,-3.12732 -5.17181,-4.23291 -1.40301,-0.63324 -2.40344,-0.78993 -5.11107,-0.8005 -3.10439,-0.0121 -3.54942,0.0769 -5.714065,1.14253 -4.05143,1.99451 -6.614036,5.70016 -7.320721,10.5861 -0.444323,3.07204 -0.437176,9.81408 0.01372,12.93407 0.467502,3.23492 1.753595,5.96905 3.793335,8.06432 2.890591,2.96927 5.17193,3.80469 9.948511,3.64307 2.72433,-0.0922 3.74156,-0.29051 5.43673,-1.05997 z m 36.82604,0.75825 c 0.26486,-0.26487 0.42333,-1.58083 0.42333,-3.51537 0,-2.69595 -0.0874,-3.13881 -0.68236,-3.45722 -0.40023,-0.2142 -3.3959,-0.36519 -7.24518,-0.36519 h -6.56282 l 0.10143,-3.2632 0.10143,-3.26319 4.73924,-0.0989 c 2.83473,-0.0591 4.93067,-0.25776 5.21561,-0.49423 0.35332,-0.29324 0.45045,-1.27 0.37604,-3.78167 l -0.10033,-3.38632 -5.21659,-0.0977 -5.21658,-0.0977 0.10131,-3.25369 0.1013,-3.25369 6.67629,-0.0962 c 4.19591,-0.0605 6.84995,-0.24034 7.14375,-0.48416 0.66469,-0.55165 0.65118,-6.41271 -0.016,-6.96647 -0.34328,-0.2849 -3.54107,-0.37417 -11.02431,-0.30778 l -10.54079,0.0935 -0.0918,17.81528 c -0.0505,9.7984 -0.0158,18.01371 0.0771,18.25625 0.23866,0.62308 21.01755,0.64002 21.63994,0.0176 z m 14.45561,-5.38923 c 0.0537,-3.09989 0.24375,-5.78236 0.42243,-5.96103 0.34857,-0.34858 1.22951,1.45479 3.59725,7.36387 0.77746,1.94027 1.57763,3.72621 1.77816,3.96875 0.25055,0.30302 1.55584,0.44097 4.17257,0.44097 2.72867,0 3.85181,-0.12499 3.96268,-0.44097 0.0851,-0.24254 -1.33043,-3.41595 -3.14561,-7.05203 -1.81517,-3.63608 -3.30031,-6.75214 -3.30031,-6.92456 0,-0.17243 0.47226,-0.50912 1.04947,-0.74821 1.31486,-0.54464 3.58364,-2.97991 4.65414,-4.99569 0.70498,-1.3275 0.81334,-2.03379 0.80371,-5.23854 -0.009,-3.07564 -0.14646,-4.00347 -0.80869,-5.46806 -1.01079,-2.23543 -2.23619,-3.52551 -4.46391,-4.69953 -1.69701,-0.89433 -2.02186,-0.93444 -8.56756,-1.0581 -4.98347,-0.0941 -6.94184,-0.0139 -7.32014,0.30012 -0.44089,0.3659 -0.51647,3.02066 -0.51647,18.14191 0,9.74231 0.11104,17.82433 0.24675,17.96004 0.13571,0.13571 1.84228,0.20186 3.79236,0.14699 l 3.54561,-0.0998 z M 45.669156,143.84359 c -0.09339,-0.24339 -0.128101,-6.2362 -0.07712,-13.31736 l 0.09269,-12.87485 6.225243,-0.0962 c 4.66078,-0.072 6.323288,-0.21432 6.615391,-0.56629 0.355688,-0.42857 4.027262,-12.4774 15.331898,-50.313906 2.231877,-7.47006 4.772854,-15.96319 5.646621,-18.873607 0.873764,-2.910416 3.670773,-12.276666 6.215577,-20.813888 2.544802,-8.537222 4.869865,-16.276284 5.166805,-17.197916 l 0.539887,-1.675694 h 20.389562 c 15.89833,0 20.46314,0.09713 20.72358,0.440972 0.18371,0.242535 0.75373,1.869722 1.26671,3.615972 0.51297,1.74625 1.74692,5.87375 2.7421,9.172222 0.99517,3.298472 2.72798,9.092847 3.85067,12.876388 7.28238,24.542021 24.34394,81.433847 24.71151,82.400637 0.31785,0.83603 0.34108,0.83923 6.76892,0.9351 l 6.44997,0.0962 v 13.22917 13.22916 h -26.81111 -26.81111 v -13.22916 -13.22917 l 6.0997,-0.0966 c 4.8958,-0.0775 6.13788,-0.19604 6.29308,-0.60048 0.25079,-0.65354 -3.38454,-12.82207 -4.0206,-13.45813 -0.68206,-0.68207 -41.274169,-0.72457 -42.128445,-0.0441 -0.60966,0.48562 -4.268731,12.35233 -4.092441,13.27218 0.09512,0.49632 0.948203,0.59832 6.279388,0.75074 l 6.169314,0.17639 0.107816,10.75972 c 0.0593,5.91785 0.0061,11.91066 -0.118293,13.31736 l -0.22611,2.55764 H 72.454662 c -21.016616,0 -26.651419,-0.0931 -26.785506,-0.44251 z M 124.7725,75.979994 c 0.22,-0.57331 -11.35164,-39.782593 -11.98621,-40.614023 -0.48972,-0.641628 -1.54696,-0.539654 -1.82878,0.176389 -0.13364,0.339548 -1.48868,4.824236 -3.01121,9.965972 -1.52253,5.141736 -3.57036,11.967982 -4.55073,15.169442 -3.36709,10.99532 -4.378591,14.71742 -4.15669,15.29567 0.200391,0.52223 1.45894,0.57933 12.76807,0.57933 11.25095,0 12.56844,-0.0591 12.76555,-0.57278 z"
     id="path78" />
</svg>
